G04 #@! TF.GenerationSoftware,KiCad,Pcbnew,5.0.2+dfsg1-1~bpo9+1*
G04 #@! TF.CreationDate,2019-04-13T15:56:37+01:00*
G04 #@! TF.ProjectId,smart_glasses,736d6172-745f-4676-9c61-737365732e6b,rev?*
G04 #@! TF.SameCoordinates,Original*
G04 #@! TF.FileFunction,Copper,L2,Bot*
G04 #@! TF.FilePolarity,Positive*
%FSLAX46Y46*%
G04 Gerber Fmt 4.6, Leading zero omitted, Abs format (unit mm)*
G04 Created by KiCad (PCBNEW 5.0.2+dfsg1-1~bpo9+1) date Sat 13 Apr 2019 15:56:37 BST*
%MOMM*%
%LPD*%
G01*
G04 APERTURE LIST*
G04 #@! TA.AperFunction,ComponentPad*
%ADD10C,1.600000*%
G04 #@! TD*
G04 #@! TA.AperFunction,ViaPad*
%ADD11C,0.800000*%
G04 #@! TD*
G04 #@! TA.AperFunction,Conductor*
%ADD12C,0.250000*%
G04 #@! TD*
G04 #@! TA.AperFunction,Conductor*
%ADD13C,0.254000*%
G04 #@! TD*
G04 APERTURE END LIST*
D10*
G04 #@! TO.P,U4,1*
G04 #@! TO.N,Net-(D1-Pad3)*
X124942600Y-79578200D03*
G04 #@! TO.P,U4,2*
G04 #@! TO.N,Net-(SW1-Pad1)*
X122402600Y-79578200D03*
G04 #@! TD*
G04 #@! TO.P,U2,3*
G04 #@! TO.N,Net-(D1-Pad1)*
X111937800Y-80848200D03*
G04 #@! TO.P,U2,2*
G04 #@! TO.N,Net-(D1-Pad3)*
X111937800Y-78308200D03*
G04 #@! TO.P,U2,1*
G04 #@! TO.N,Net-(SW1-Pad2)*
X111937800Y-75768200D03*
G04 #@! TD*
G04 #@! TO.P,D1,4*
G04 #@! TO.N,Net-(D1-Pad4)*
X116382800Y-75565000D03*
G04 #@! TO.P,D1,1*
G04 #@! TO.N,Net-(D1-Pad1)*
X116382800Y-78105000D03*
G04 #@! TO.P,D1,3*
G04 #@! TO.N,Net-(D1-Pad3)*
X116382800Y-80645000D03*
G04 #@! TD*
D11*
G04 #@! TO.N,Net-(D1-Pad4)*
X140398500Y-80594200D03*
X128155700Y-80416400D03*
G04 #@! TO.N,Net-(D1-Pad1)*
X139128500Y-76009500D03*
X143916400Y-76466700D03*
G04 #@! TO.N,Net-(D1-Pad3)*
X148221700Y-79946500D03*
X130022600Y-76123800D03*
X132410200Y-75755500D03*
X134556500Y-75284500D03*
X137147300Y-75171300D03*
G04 #@! TD*
D12*
G04 #@! TO.N,Net-(D1-Pad4)*
X128333500Y-80594200D02*
X128155700Y-80416400D01*
X140398500Y-80594200D02*
X128333500Y-80594200D01*
G04 #@! TO.N,Net-(D1-Pad1)*
X143459200Y-76009500D02*
X143916400Y-76466700D01*
X139128500Y-76009500D02*
X143459200Y-76009500D01*
G04 #@! TO.N,Net-(D1-Pad3)*
X132810199Y-75355501D02*
X134105599Y-75355501D01*
X132410200Y-75755500D02*
X132810199Y-75355501D01*
G04 #@! TD*
D13*
G04 #@! TO.N,Net-(D1-Pad3)*
G36*
X149555200Y-83960900D02*
X111364700Y-83960900D01*
X111364700Y-82164047D01*
X111652361Y-82283200D01*
X112223239Y-82283200D01*
X112750662Y-82064734D01*
X113154334Y-81661062D01*
X113157779Y-81652745D01*
X115554661Y-81652745D01*
X115628795Y-81898864D01*
X116166023Y-82091965D01*
X116736254Y-82064778D01*
X117136805Y-81898864D01*
X117210939Y-81652745D01*
X116382800Y-80824605D01*
X115554661Y-81652745D01*
X113157779Y-81652745D01*
X113372800Y-81133639D01*
X113372800Y-80562761D01*
X113317073Y-80428223D01*
X114935835Y-80428223D01*
X114963022Y-80998454D01*
X115128936Y-81399005D01*
X115375055Y-81473139D01*
X116203195Y-80645000D01*
X116562405Y-80645000D01*
X117390545Y-81473139D01*
X117636664Y-81399005D01*
X117829765Y-80861777D01*
X117802578Y-80291546D01*
X117636664Y-79890995D01*
X117390545Y-79816861D01*
X116562405Y-80645000D01*
X116203195Y-80645000D01*
X115375055Y-79816861D01*
X115128936Y-79890995D01*
X114935835Y-80428223D01*
X113317073Y-80428223D01*
X113154334Y-80035338D01*
X112750662Y-79631666D01*
X112637217Y-79584675D01*
X112691805Y-79562064D01*
X112765939Y-79315945D01*
X111937800Y-78487805D01*
X111923658Y-78501948D01*
X111744053Y-78322343D01*
X111758195Y-78308200D01*
X112117405Y-78308200D01*
X112945545Y-79136339D01*
X113191664Y-79062205D01*
X113384765Y-78524977D01*
X113357578Y-77954746D01*
X113191664Y-77554195D01*
X112945545Y-77480061D01*
X112117405Y-78308200D01*
X111758195Y-78308200D01*
X111744053Y-78294058D01*
X111923658Y-78114452D01*
X111937800Y-78128595D01*
X112765939Y-77300455D01*
X112691805Y-77054336D01*
X112633352Y-77033326D01*
X112750662Y-76984734D01*
X113154334Y-76581062D01*
X113372800Y-76053639D01*
X113372800Y-75482761D01*
X113288632Y-75279561D01*
X114947800Y-75279561D01*
X114947800Y-75850439D01*
X115166266Y-76377862D01*
X115569938Y-76781534D01*
X115699016Y-76835000D01*
X115569938Y-76888466D01*
X115166266Y-77292138D01*
X114947800Y-77819561D01*
X114947800Y-78390439D01*
X115166266Y-78917862D01*
X115569938Y-79321534D01*
X115683383Y-79368525D01*
X115628795Y-79391136D01*
X115554661Y-79637255D01*
X116382800Y-80465395D01*
X117210939Y-79637255D01*
X117136805Y-79391136D01*
X117078352Y-79370126D01*
X117195662Y-79321534D01*
X117224435Y-79292761D01*
X120967600Y-79292761D01*
X120967600Y-79863639D01*
X121186066Y-80391062D01*
X121589738Y-80794734D01*
X122117161Y-81013200D01*
X122688039Y-81013200D01*
X123215462Y-80794734D01*
X123424251Y-80585945D01*
X124114461Y-80585945D01*
X124188595Y-80832064D01*
X124725823Y-81025165D01*
X125296054Y-80997978D01*
X125696605Y-80832064D01*
X125770739Y-80585945D01*
X124942600Y-79757805D01*
X124114461Y-80585945D01*
X123424251Y-80585945D01*
X123619134Y-80391062D01*
X123666125Y-80277617D01*
X123688736Y-80332205D01*
X123934855Y-80406339D01*
X124762995Y-79578200D01*
X125122205Y-79578200D01*
X125950345Y-80406339D01*
X126196464Y-80332205D01*
X126240200Y-80210526D01*
X127120700Y-80210526D01*
X127120700Y-80622274D01*
X127278269Y-81002680D01*
X127569420Y-81293831D01*
X127949826Y-81451400D01*
X128361574Y-81451400D01*
X128596236Y-81354200D01*
X139694789Y-81354200D01*
X139812220Y-81471631D01*
X140192626Y-81629200D01*
X140604374Y-81629200D01*
X140984780Y-81471631D01*
X141275931Y-81180480D01*
X141433500Y-80800074D01*
X141433500Y-80388326D01*
X141275931Y-80007920D01*
X140984780Y-79716769D01*
X140604374Y-79559200D01*
X140192626Y-79559200D01*
X139812220Y-79716769D01*
X139694789Y-79834200D01*
X129034821Y-79834200D01*
X129033131Y-79830120D01*
X128741980Y-79538969D01*
X128361574Y-79381400D01*
X127949826Y-79381400D01*
X127569420Y-79538969D01*
X127278269Y-79830120D01*
X127120700Y-80210526D01*
X126240200Y-80210526D01*
X126389565Y-79794977D01*
X126362378Y-79224746D01*
X126196464Y-78824195D01*
X125950345Y-78750061D01*
X125122205Y-79578200D01*
X124762995Y-79578200D01*
X123934855Y-78750061D01*
X123688736Y-78824195D01*
X123667726Y-78882648D01*
X123619134Y-78765338D01*
X123424251Y-78570455D01*
X124114461Y-78570455D01*
X124942600Y-79398595D01*
X125770739Y-78570455D01*
X125696605Y-78324336D01*
X125159377Y-78131235D01*
X124589146Y-78158422D01*
X124188595Y-78324336D01*
X124114461Y-78570455D01*
X123424251Y-78570455D01*
X123215462Y-78361666D01*
X122688039Y-78143200D01*
X122117161Y-78143200D01*
X121589738Y-78361666D01*
X121186066Y-78765338D01*
X120967600Y-79292761D01*
X117224435Y-79292761D01*
X117599334Y-78917862D01*
X117817800Y-78390439D01*
X117817800Y-77819561D01*
X117599334Y-77292138D01*
X117195662Y-76888466D01*
X117066584Y-76835000D01*
X117195662Y-76781534D01*
X117599334Y-76377862D01*
X117817800Y-75850439D01*
X117817800Y-75803626D01*
X138093500Y-75803626D01*
X138093500Y-76215374D01*
X138251069Y-76595780D01*
X138542220Y-76886931D01*
X138922626Y-77044500D01*
X139334374Y-77044500D01*
X139714780Y-76886931D01*
X139832211Y-76769500D01*
X142921548Y-76769500D01*
X143038969Y-77052980D01*
X143330120Y-77344131D01*
X143710526Y-77501700D01*
X144122274Y-77501700D01*
X144502680Y-77344131D01*
X144793831Y-77052980D01*
X144951400Y-76672574D01*
X144951400Y-76260826D01*
X144793831Y-75880420D01*
X144502680Y-75589269D01*
X144122274Y-75431700D01*
X143962424Y-75431700D01*
X143755737Y-75293596D01*
X143534052Y-75249500D01*
X143534047Y-75249500D01*
X143459200Y-75234612D01*
X143384353Y-75249500D01*
X139832211Y-75249500D01*
X139714780Y-75132069D01*
X139334374Y-74974500D01*
X138922626Y-74974500D01*
X138542220Y-75132069D01*
X138251069Y-75423220D01*
X138093500Y-75803626D01*
X117817800Y-75803626D01*
X117817800Y-75279561D01*
X117599334Y-74752138D01*
X117195662Y-74348466D01*
X116668239Y-74130000D01*
X116097361Y-74130000D01*
X115569938Y-74348466D01*
X115166266Y-74752138D01*
X114947800Y-75279561D01*
X113288632Y-75279561D01*
X113154334Y-74955338D01*
X112750662Y-74551666D01*
X112223239Y-74333200D01*
X111652361Y-74333200D01*
X111364700Y-74452353D01*
X111364700Y-72464600D01*
X149555200Y-72464600D01*
X149555200Y-83960900D01*
X149555200Y-83960900D01*
G37*
X149555200Y-83960900D02*
X111364700Y-83960900D01*
X111364700Y-82164047D01*
X111652361Y-82283200D01*
X112223239Y-82283200D01*
X112750662Y-82064734D01*
X113154334Y-81661062D01*
X113157779Y-81652745D01*
X115554661Y-81652745D01*
X115628795Y-81898864D01*
X116166023Y-82091965D01*
X116736254Y-82064778D01*
X117136805Y-81898864D01*
X117210939Y-81652745D01*
X116382800Y-80824605D01*
X115554661Y-81652745D01*
X113157779Y-81652745D01*
X113372800Y-81133639D01*
X113372800Y-80562761D01*
X113317073Y-80428223D01*
X114935835Y-80428223D01*
X114963022Y-80998454D01*
X115128936Y-81399005D01*
X115375055Y-81473139D01*
X116203195Y-80645000D01*
X116562405Y-80645000D01*
X117390545Y-81473139D01*
X117636664Y-81399005D01*
X117829765Y-80861777D01*
X117802578Y-80291546D01*
X117636664Y-79890995D01*
X117390545Y-79816861D01*
X116562405Y-80645000D01*
X116203195Y-80645000D01*
X115375055Y-79816861D01*
X115128936Y-79890995D01*
X114935835Y-80428223D01*
X113317073Y-80428223D01*
X113154334Y-80035338D01*
X112750662Y-79631666D01*
X112637217Y-79584675D01*
X112691805Y-79562064D01*
X112765939Y-79315945D01*
X111937800Y-78487805D01*
X111923658Y-78501948D01*
X111744053Y-78322343D01*
X111758195Y-78308200D01*
X112117405Y-78308200D01*
X112945545Y-79136339D01*
X113191664Y-79062205D01*
X113384765Y-78524977D01*
X113357578Y-77954746D01*
X113191664Y-77554195D01*
X112945545Y-77480061D01*
X112117405Y-78308200D01*
X111758195Y-78308200D01*
X111744053Y-78294058D01*
X111923658Y-78114452D01*
X111937800Y-78128595D01*
X112765939Y-77300455D01*
X112691805Y-77054336D01*
X112633352Y-77033326D01*
X112750662Y-76984734D01*
X113154334Y-76581062D01*
X113372800Y-76053639D01*
X113372800Y-75482761D01*
X113288632Y-75279561D01*
X114947800Y-75279561D01*
X114947800Y-75850439D01*
X115166266Y-76377862D01*
X115569938Y-76781534D01*
X115699016Y-76835000D01*
X115569938Y-76888466D01*
X115166266Y-77292138D01*
X114947800Y-77819561D01*
X114947800Y-78390439D01*
X115166266Y-78917862D01*
X115569938Y-79321534D01*
X115683383Y-79368525D01*
X115628795Y-79391136D01*
X115554661Y-79637255D01*
X116382800Y-80465395D01*
X117210939Y-79637255D01*
X117136805Y-79391136D01*
X117078352Y-79370126D01*
X117195662Y-79321534D01*
X117224435Y-79292761D01*
X120967600Y-79292761D01*
X120967600Y-79863639D01*
X121186066Y-80391062D01*
X121589738Y-80794734D01*
X122117161Y-81013200D01*
X122688039Y-81013200D01*
X123215462Y-80794734D01*
X123424251Y-80585945D01*
X124114461Y-80585945D01*
X124188595Y-80832064D01*
X124725823Y-81025165D01*
X125296054Y-80997978D01*
X125696605Y-80832064D01*
X125770739Y-80585945D01*
X124942600Y-79757805D01*
X124114461Y-80585945D01*
X123424251Y-80585945D01*
X123619134Y-80391062D01*
X123666125Y-80277617D01*
X123688736Y-80332205D01*
X123934855Y-80406339D01*
X124762995Y-79578200D01*
X125122205Y-79578200D01*
X125950345Y-80406339D01*
X126196464Y-80332205D01*
X126240200Y-80210526D01*
X127120700Y-80210526D01*
X127120700Y-80622274D01*
X127278269Y-81002680D01*
X127569420Y-81293831D01*
X127949826Y-81451400D01*
X128361574Y-81451400D01*
X128596236Y-81354200D01*
X139694789Y-81354200D01*
X139812220Y-81471631D01*
X140192626Y-81629200D01*
X140604374Y-81629200D01*
X140984780Y-81471631D01*
X141275931Y-81180480D01*
X141433500Y-80800074D01*
X141433500Y-80388326D01*
X141275931Y-80007920D01*
X140984780Y-79716769D01*
X140604374Y-79559200D01*
X140192626Y-79559200D01*
X139812220Y-79716769D01*
X139694789Y-79834200D01*
X129034821Y-79834200D01*
X129033131Y-79830120D01*
X128741980Y-79538969D01*
X128361574Y-79381400D01*
X127949826Y-79381400D01*
X127569420Y-79538969D01*
X127278269Y-79830120D01*
X127120700Y-80210526D01*
X126240200Y-80210526D01*
X126389565Y-79794977D01*
X126362378Y-79224746D01*
X126196464Y-78824195D01*
X125950345Y-78750061D01*
X125122205Y-79578200D01*
X124762995Y-79578200D01*
X123934855Y-78750061D01*
X123688736Y-78824195D01*
X123667726Y-78882648D01*
X123619134Y-78765338D01*
X123424251Y-78570455D01*
X124114461Y-78570455D01*
X124942600Y-79398595D01*
X125770739Y-78570455D01*
X125696605Y-78324336D01*
X125159377Y-78131235D01*
X124589146Y-78158422D01*
X124188595Y-78324336D01*
X124114461Y-78570455D01*
X123424251Y-78570455D01*
X123215462Y-78361666D01*
X122688039Y-78143200D01*
X122117161Y-78143200D01*
X121589738Y-78361666D01*
X121186066Y-78765338D01*
X120967600Y-79292761D01*
X117224435Y-79292761D01*
X117599334Y-78917862D01*
X117817800Y-78390439D01*
X117817800Y-77819561D01*
X117599334Y-77292138D01*
X117195662Y-76888466D01*
X117066584Y-76835000D01*
X117195662Y-76781534D01*
X117599334Y-76377862D01*
X117817800Y-75850439D01*
X117817800Y-75803626D01*
X138093500Y-75803626D01*
X138093500Y-76215374D01*
X138251069Y-76595780D01*
X138542220Y-76886931D01*
X138922626Y-77044500D01*
X139334374Y-77044500D01*
X139714780Y-76886931D01*
X139832211Y-76769500D01*
X142921548Y-76769500D01*
X143038969Y-77052980D01*
X143330120Y-77344131D01*
X143710526Y-77501700D01*
X144122274Y-77501700D01*
X144502680Y-77344131D01*
X144793831Y-77052980D01*
X144951400Y-76672574D01*
X144951400Y-76260826D01*
X144793831Y-75880420D01*
X144502680Y-75589269D01*
X144122274Y-75431700D01*
X143962424Y-75431700D01*
X143755737Y-75293596D01*
X143534052Y-75249500D01*
X143534047Y-75249500D01*
X143459200Y-75234612D01*
X143384353Y-75249500D01*
X139832211Y-75249500D01*
X139714780Y-75132069D01*
X139334374Y-74974500D01*
X138922626Y-74974500D01*
X138542220Y-75132069D01*
X138251069Y-75423220D01*
X138093500Y-75803626D01*
X117817800Y-75803626D01*
X117817800Y-75279561D01*
X117599334Y-74752138D01*
X117195662Y-74348466D01*
X116668239Y-74130000D01*
X116097361Y-74130000D01*
X115569938Y-74348466D01*
X115166266Y-74752138D01*
X114947800Y-75279561D01*
X113288632Y-75279561D01*
X113154334Y-74955338D01*
X112750662Y-74551666D01*
X112223239Y-74333200D01*
X111652361Y-74333200D01*
X111364700Y-74452353D01*
X111364700Y-72464600D01*
X149555200Y-72464600D01*
X149555200Y-83960900D01*
G04 #@! TD*
M02*
