G04 #@! TF.GenerationSoftware,KiCad,Pcbnew,5.0.2+dfsg1-1~bpo9+1*
G04 #@! TF.CreationDate,2019-04-13T15:56:37+01:00*
G04 #@! TF.ProjectId,smart_glasses,736d6172-745f-4676-9c61-737365732e6b,rev?*
G04 #@! TF.SameCoordinates,Original*
G04 #@! TF.FileFunction,Soldermask,Bot*
G04 #@! TF.FilePolarity,Negative*
%FSLAX46Y46*%
G04 Gerber Fmt 4.6, Leading zero omitted, Abs format (unit mm)*
G04 Created by KiCad (PCBNEW 5.0.2+dfsg1-1~bpo9+1) date Sat 13 Apr 2019 15:56:37 BST*
%MOMM*%
%LPD*%
G01*
G04 APERTURE LIST*
%ADD10C,0.100000*%
G04 APERTURE END LIST*
D10*
G36*
X112186028Y-80029903D02*
X112340900Y-80094053D01*
X112480281Y-80187185D01*
X112598815Y-80305719D01*
X112691947Y-80445100D01*
X112756097Y-80599972D01*
X112788800Y-80764384D01*
X112788800Y-80932016D01*
X112756097Y-81096428D01*
X112691947Y-81251300D01*
X112598815Y-81390681D01*
X112480281Y-81509215D01*
X112340900Y-81602347D01*
X112186028Y-81666497D01*
X112021616Y-81699200D01*
X111853984Y-81699200D01*
X111689572Y-81666497D01*
X111534700Y-81602347D01*
X111395319Y-81509215D01*
X111276785Y-81390681D01*
X111183653Y-81251300D01*
X111119503Y-81096428D01*
X111086800Y-80932016D01*
X111086800Y-80764384D01*
X111119503Y-80599972D01*
X111183653Y-80445100D01*
X111276785Y-80305719D01*
X111395319Y-80187185D01*
X111534700Y-80094053D01*
X111689572Y-80029903D01*
X111853984Y-79997200D01*
X112021616Y-79997200D01*
X112186028Y-80029903D01*
X112186028Y-80029903D01*
G37*
G36*
X116631028Y-79826703D02*
X116785900Y-79890853D01*
X116925281Y-79983985D01*
X117043815Y-80102519D01*
X117136947Y-80241900D01*
X117201097Y-80396772D01*
X117233800Y-80561184D01*
X117233800Y-80728816D01*
X117201097Y-80893228D01*
X117136947Y-81048100D01*
X117043815Y-81187481D01*
X116925281Y-81306015D01*
X116785900Y-81399147D01*
X116631028Y-81463297D01*
X116466616Y-81496000D01*
X116298984Y-81496000D01*
X116134572Y-81463297D01*
X115979700Y-81399147D01*
X115840319Y-81306015D01*
X115721785Y-81187481D01*
X115628653Y-81048100D01*
X115564503Y-80893228D01*
X115531800Y-80728816D01*
X115531800Y-80561184D01*
X115564503Y-80396772D01*
X115628653Y-80241900D01*
X115721785Y-80102519D01*
X115840319Y-79983985D01*
X115979700Y-79890853D01*
X116134572Y-79826703D01*
X116298984Y-79794000D01*
X116466616Y-79794000D01*
X116631028Y-79826703D01*
X116631028Y-79826703D01*
G37*
G36*
X125190828Y-78759903D02*
X125345700Y-78824053D01*
X125485081Y-78917185D01*
X125603615Y-79035719D01*
X125696747Y-79175100D01*
X125760897Y-79329972D01*
X125793600Y-79494384D01*
X125793600Y-79662016D01*
X125760897Y-79826428D01*
X125696747Y-79981300D01*
X125603615Y-80120681D01*
X125485081Y-80239215D01*
X125345700Y-80332347D01*
X125190828Y-80396497D01*
X125026416Y-80429200D01*
X124858784Y-80429200D01*
X124694372Y-80396497D01*
X124539500Y-80332347D01*
X124400119Y-80239215D01*
X124281585Y-80120681D01*
X124188453Y-79981300D01*
X124124303Y-79826428D01*
X124091600Y-79662016D01*
X124091600Y-79494384D01*
X124124303Y-79329972D01*
X124188453Y-79175100D01*
X124281585Y-79035719D01*
X124400119Y-78917185D01*
X124539500Y-78824053D01*
X124694372Y-78759903D01*
X124858784Y-78727200D01*
X125026416Y-78727200D01*
X125190828Y-78759903D01*
X125190828Y-78759903D01*
G37*
G36*
X122650828Y-78759903D02*
X122805700Y-78824053D01*
X122945081Y-78917185D01*
X123063615Y-79035719D01*
X123156747Y-79175100D01*
X123220897Y-79329972D01*
X123253600Y-79494384D01*
X123253600Y-79662016D01*
X123220897Y-79826428D01*
X123156747Y-79981300D01*
X123063615Y-80120681D01*
X122945081Y-80239215D01*
X122805700Y-80332347D01*
X122650828Y-80396497D01*
X122486416Y-80429200D01*
X122318784Y-80429200D01*
X122154372Y-80396497D01*
X121999500Y-80332347D01*
X121860119Y-80239215D01*
X121741585Y-80120681D01*
X121648453Y-79981300D01*
X121584303Y-79826428D01*
X121551600Y-79662016D01*
X121551600Y-79494384D01*
X121584303Y-79329972D01*
X121648453Y-79175100D01*
X121741585Y-79035719D01*
X121860119Y-78917185D01*
X121999500Y-78824053D01*
X122154372Y-78759903D01*
X122318784Y-78727200D01*
X122486416Y-78727200D01*
X122650828Y-78759903D01*
X122650828Y-78759903D01*
G37*
G36*
X112186028Y-77489903D02*
X112340900Y-77554053D01*
X112480281Y-77647185D01*
X112598815Y-77765719D01*
X112691947Y-77905100D01*
X112756097Y-78059972D01*
X112788800Y-78224384D01*
X112788800Y-78392016D01*
X112756097Y-78556428D01*
X112691947Y-78711300D01*
X112598815Y-78850681D01*
X112480281Y-78969215D01*
X112340900Y-79062347D01*
X112186028Y-79126497D01*
X112021616Y-79159200D01*
X111853984Y-79159200D01*
X111689572Y-79126497D01*
X111534700Y-79062347D01*
X111395319Y-78969215D01*
X111276785Y-78850681D01*
X111183653Y-78711300D01*
X111119503Y-78556428D01*
X111086800Y-78392016D01*
X111086800Y-78224384D01*
X111119503Y-78059972D01*
X111183653Y-77905100D01*
X111276785Y-77765719D01*
X111395319Y-77647185D01*
X111534700Y-77554053D01*
X111689572Y-77489903D01*
X111853984Y-77457200D01*
X112021616Y-77457200D01*
X112186028Y-77489903D01*
X112186028Y-77489903D01*
G37*
G36*
X116631028Y-77286703D02*
X116785900Y-77350853D01*
X116925281Y-77443985D01*
X117043815Y-77562519D01*
X117136947Y-77701900D01*
X117201097Y-77856772D01*
X117233800Y-78021184D01*
X117233800Y-78188816D01*
X117201097Y-78353228D01*
X117136947Y-78508100D01*
X117043815Y-78647481D01*
X116925281Y-78766015D01*
X116785900Y-78859147D01*
X116631028Y-78923297D01*
X116466616Y-78956000D01*
X116298984Y-78956000D01*
X116134572Y-78923297D01*
X115979700Y-78859147D01*
X115840319Y-78766015D01*
X115721785Y-78647481D01*
X115628653Y-78508100D01*
X115564503Y-78353228D01*
X115531800Y-78188816D01*
X115531800Y-78021184D01*
X115564503Y-77856772D01*
X115628653Y-77701900D01*
X115721785Y-77562519D01*
X115840319Y-77443985D01*
X115979700Y-77350853D01*
X116134572Y-77286703D01*
X116298984Y-77254000D01*
X116466616Y-77254000D01*
X116631028Y-77286703D01*
X116631028Y-77286703D01*
G37*
G36*
X112186028Y-74949903D02*
X112340900Y-75014053D01*
X112480281Y-75107185D01*
X112598815Y-75225719D01*
X112691947Y-75365100D01*
X112756097Y-75519972D01*
X112788800Y-75684384D01*
X112788800Y-75852016D01*
X112756097Y-76016428D01*
X112691947Y-76171300D01*
X112598815Y-76310681D01*
X112480281Y-76429215D01*
X112340900Y-76522347D01*
X112186028Y-76586497D01*
X112021616Y-76619200D01*
X111853984Y-76619200D01*
X111689572Y-76586497D01*
X111534700Y-76522347D01*
X111395319Y-76429215D01*
X111276785Y-76310681D01*
X111183653Y-76171300D01*
X111119503Y-76016428D01*
X111086800Y-75852016D01*
X111086800Y-75684384D01*
X111119503Y-75519972D01*
X111183653Y-75365100D01*
X111276785Y-75225719D01*
X111395319Y-75107185D01*
X111534700Y-75014053D01*
X111689572Y-74949903D01*
X111853984Y-74917200D01*
X112021616Y-74917200D01*
X112186028Y-74949903D01*
X112186028Y-74949903D01*
G37*
G36*
X116631028Y-74746703D02*
X116785900Y-74810853D01*
X116925281Y-74903985D01*
X117043815Y-75022519D01*
X117136947Y-75161900D01*
X117201097Y-75316772D01*
X117233800Y-75481184D01*
X117233800Y-75648816D01*
X117201097Y-75813228D01*
X117136947Y-75968100D01*
X117043815Y-76107481D01*
X116925281Y-76226015D01*
X116785900Y-76319147D01*
X116631028Y-76383297D01*
X116466616Y-76416000D01*
X116298984Y-76416000D01*
X116134572Y-76383297D01*
X115979700Y-76319147D01*
X115840319Y-76226015D01*
X115721785Y-76107481D01*
X115628653Y-75968100D01*
X115564503Y-75813228D01*
X115531800Y-75648816D01*
X115531800Y-75481184D01*
X115564503Y-75316772D01*
X115628653Y-75161900D01*
X115721785Y-75022519D01*
X115840319Y-74903985D01*
X115979700Y-74810853D01*
X116134572Y-74746703D01*
X116298984Y-74714000D01*
X116466616Y-74714000D01*
X116631028Y-74746703D01*
X116631028Y-74746703D01*
G37*
M02*
