G04 #@! TF.GenerationSoftware,KiCad,Pcbnew,5.0.2+dfsg1-1~bpo9+1*
G04 #@! TF.CreationDate,2019-04-13T15:56:37+01:00*
G04 #@! TF.ProjectId,smart_glasses,736d6172-745f-4676-9c61-737365732e6b,rev?*
G04 #@! TF.SameCoordinates,Original*
G04 #@! TF.FileFunction,Legend,Bot*
G04 #@! TF.FilePolarity,Positive*
%FSLAX46Y46*%
G04 Gerber Fmt 4.6, Leading zero omitted, Abs format (unit mm)*
G04 Created by KiCad (PCBNEW 5.0.2+dfsg1-1~bpo9+1) date Sat 13 Apr 2019 15:56:37 BST*
%MOMM*%
%LPD*%
G01*
G04 APERTURE LIST*
%ADD10C,0.250000*%
%ADD11C,0.150000*%
G04 APERTURE END LIST*
D10*
X148217876Y-77620761D02*
X148075019Y-77668380D01*
X147836923Y-77668380D01*
X147741685Y-77620761D01*
X147694066Y-77573142D01*
X147646447Y-77477904D01*
X147646447Y-77382666D01*
X147694066Y-77287428D01*
X147741685Y-77239809D01*
X147836923Y-77192190D01*
X148027400Y-77144571D01*
X148122638Y-77096952D01*
X148170257Y-77049333D01*
X148217876Y-76954095D01*
X148217876Y-76858857D01*
X148170257Y-76763619D01*
X148122638Y-76716000D01*
X148027400Y-76668380D01*
X147789304Y-76668380D01*
X147646447Y-76716000D01*
X147217876Y-77668380D02*
X147217876Y-77001714D01*
X147217876Y-77096952D02*
X147170257Y-77049333D01*
X147075019Y-77001714D01*
X146932161Y-77001714D01*
X146836923Y-77049333D01*
X146789304Y-77144571D01*
X146789304Y-77668380D01*
X146789304Y-77144571D02*
X146741685Y-77049333D01*
X146646447Y-77001714D01*
X146503590Y-77001714D01*
X146408352Y-77049333D01*
X146360733Y-77144571D01*
X146360733Y-77668380D01*
X145455971Y-77668380D02*
X145455971Y-77144571D01*
X145503590Y-77049333D01*
X145598828Y-77001714D01*
X145789304Y-77001714D01*
X145884542Y-77049333D01*
X145455971Y-77620761D02*
X145551209Y-77668380D01*
X145789304Y-77668380D01*
X145884542Y-77620761D01*
X145932161Y-77525523D01*
X145932161Y-77430285D01*
X145884542Y-77335047D01*
X145789304Y-77287428D01*
X145551209Y-77287428D01*
X145455971Y-77239809D01*
X144979780Y-77668380D02*
X144979780Y-77001714D01*
X144979780Y-77192190D02*
X144932161Y-77096952D01*
X144884542Y-77049333D01*
X144789304Y-77001714D01*
X144694066Y-77001714D01*
X144503590Y-77001714D02*
X144122638Y-77001714D01*
X144360733Y-76668380D02*
X144360733Y-77525523D01*
X144313114Y-77620761D01*
X144217876Y-77668380D01*
X144122638Y-77668380D01*
X144027400Y-77763619D02*
X143265495Y-77763619D01*
X142598828Y-77001714D02*
X142598828Y-77811238D01*
X142646447Y-77906476D01*
X142694066Y-77954095D01*
X142789304Y-78001714D01*
X142932161Y-78001714D01*
X143027400Y-77954095D01*
X142598828Y-77620761D02*
X142694066Y-77668380D01*
X142884542Y-77668380D01*
X142979780Y-77620761D01*
X143027400Y-77573142D01*
X143075019Y-77477904D01*
X143075019Y-77192190D01*
X143027400Y-77096952D01*
X142979780Y-77049333D01*
X142884542Y-77001714D01*
X142694066Y-77001714D01*
X142598828Y-77049333D01*
X141979780Y-77668380D02*
X142075019Y-77620761D01*
X142122638Y-77525523D01*
X142122638Y-76668380D01*
X141170257Y-77668380D02*
X141170257Y-77144571D01*
X141217876Y-77049333D01*
X141313114Y-77001714D01*
X141503590Y-77001714D01*
X141598828Y-77049333D01*
X141170257Y-77620761D02*
X141265495Y-77668380D01*
X141503590Y-77668380D01*
X141598828Y-77620761D01*
X141646447Y-77525523D01*
X141646447Y-77430285D01*
X141598828Y-77335047D01*
X141503590Y-77287428D01*
X141265495Y-77287428D01*
X141170257Y-77239809D01*
X140741685Y-77620761D02*
X140646447Y-77668380D01*
X140455971Y-77668380D01*
X140360733Y-77620761D01*
X140313114Y-77525523D01*
X140313114Y-77477904D01*
X140360733Y-77382666D01*
X140455971Y-77335047D01*
X140598828Y-77335047D01*
X140694066Y-77287428D01*
X140741685Y-77192190D01*
X140741685Y-77144571D01*
X140694066Y-77049333D01*
X140598828Y-77001714D01*
X140455971Y-77001714D01*
X140360733Y-77049333D01*
X139932161Y-77620761D02*
X139836923Y-77668380D01*
X139646447Y-77668380D01*
X139551209Y-77620761D01*
X139503590Y-77525523D01*
X139503590Y-77477904D01*
X139551209Y-77382666D01*
X139646447Y-77335047D01*
X139789304Y-77335047D01*
X139884542Y-77287428D01*
X139932161Y-77192190D01*
X139932161Y-77144571D01*
X139884542Y-77049333D01*
X139789304Y-77001714D01*
X139646447Y-77001714D01*
X139551209Y-77049333D01*
X138694066Y-77620761D02*
X138789304Y-77668380D01*
X138979780Y-77668380D01*
X139075019Y-77620761D01*
X139122638Y-77525523D01*
X139122638Y-77144571D01*
X139075019Y-77049333D01*
X138979780Y-77001714D01*
X138789304Y-77001714D01*
X138694066Y-77049333D01*
X138646447Y-77144571D01*
X138646447Y-77239809D01*
X139122638Y-77335047D01*
X138265495Y-77620761D02*
X138170257Y-77668380D01*
X137979780Y-77668380D01*
X137884542Y-77620761D01*
X137836923Y-77525523D01*
X137836923Y-77477904D01*
X137884542Y-77382666D01*
X137979780Y-77335047D01*
X138122638Y-77335047D01*
X138217876Y-77287428D01*
X138265495Y-77192190D01*
X138265495Y-77144571D01*
X138217876Y-77049333D01*
X138122638Y-77001714D01*
X137979780Y-77001714D01*
X137884542Y-77049333D01*
X149600419Y-79252771D02*
X149933752Y-79252771D01*
X149933752Y-79776580D02*
X149933752Y-78776580D01*
X149457561Y-78776580D01*
X148648038Y-79776580D02*
X148648038Y-79252771D01*
X148695657Y-79157533D01*
X148790895Y-79109914D01*
X148981371Y-79109914D01*
X149076609Y-79157533D01*
X148648038Y-79728961D02*
X148743276Y-79776580D01*
X148981371Y-79776580D01*
X149076609Y-79728961D01*
X149124228Y-79633723D01*
X149124228Y-79538485D01*
X149076609Y-79443247D01*
X148981371Y-79395628D01*
X148743276Y-79395628D01*
X148648038Y-79348009D01*
X147743276Y-79728961D02*
X147838514Y-79776580D01*
X148028990Y-79776580D01*
X148124228Y-79728961D01*
X148171847Y-79681342D01*
X148219466Y-79586104D01*
X148219466Y-79300390D01*
X148171847Y-79205152D01*
X148124228Y-79157533D01*
X148028990Y-79109914D01*
X147838514Y-79109914D01*
X147743276Y-79157533D01*
X146933752Y-79728961D02*
X147028990Y-79776580D01*
X147219466Y-79776580D01*
X147314704Y-79728961D01*
X147362323Y-79633723D01*
X147362323Y-79252771D01*
X147314704Y-79157533D01*
X147219466Y-79109914D01*
X147028990Y-79109914D01*
X146933752Y-79157533D01*
X146886133Y-79252771D01*
X146886133Y-79348009D01*
X147362323Y-79443247D01*
X146314704Y-79776580D02*
X146409942Y-79728961D01*
X146457561Y-79633723D01*
X146457561Y-78776580D01*
X145552800Y-79728961D02*
X145648038Y-79776580D01*
X145838514Y-79776580D01*
X145933752Y-79728961D01*
X145981371Y-79633723D01*
X145981371Y-79252771D01*
X145933752Y-79157533D01*
X145838514Y-79109914D01*
X145648038Y-79109914D01*
X145552800Y-79157533D01*
X145505180Y-79252771D01*
X145505180Y-79348009D01*
X145981371Y-79443247D01*
X145124228Y-79728961D02*
X145028990Y-79776580D01*
X144838514Y-79776580D01*
X144743276Y-79728961D01*
X144695657Y-79633723D01*
X144695657Y-79586104D01*
X144743276Y-79490866D01*
X144838514Y-79443247D01*
X144981371Y-79443247D01*
X145076609Y-79395628D01*
X145124228Y-79300390D01*
X145124228Y-79252771D01*
X145076609Y-79157533D01*
X144981371Y-79109914D01*
X144838514Y-79109914D01*
X144743276Y-79157533D01*
X144314704Y-79728961D02*
X144219466Y-79776580D01*
X144028990Y-79776580D01*
X143933752Y-79728961D01*
X143886133Y-79633723D01*
X143886133Y-79586104D01*
X143933752Y-79490866D01*
X144028990Y-79443247D01*
X144171847Y-79443247D01*
X144267085Y-79395628D01*
X144314704Y-79300390D01*
X144314704Y-79252771D01*
X144267085Y-79157533D01*
X144171847Y-79109914D01*
X144028990Y-79109914D01*
X143933752Y-79157533D01*
X143600419Y-79109914D02*
X143219466Y-79109914D01*
X143457561Y-78776580D02*
X143457561Y-79633723D01*
X143409942Y-79728961D01*
X143314704Y-79776580D01*
X143219466Y-79776580D01*
X142505180Y-79728961D02*
X142600419Y-79776580D01*
X142790895Y-79776580D01*
X142886133Y-79728961D01*
X142933752Y-79633723D01*
X142933752Y-79252771D01*
X142886133Y-79157533D01*
X142790895Y-79109914D01*
X142600419Y-79109914D01*
X142505180Y-79157533D01*
X142457561Y-79252771D01*
X142457561Y-79348009D01*
X142933752Y-79443247D01*
X141600419Y-79728961D02*
X141695657Y-79776580D01*
X141886133Y-79776580D01*
X141981371Y-79728961D01*
X142028990Y-79681342D01*
X142076609Y-79586104D01*
X142076609Y-79300390D01*
X142028990Y-79205152D01*
X141981371Y-79157533D01*
X141886133Y-79109914D01*
X141695657Y-79109914D01*
X141600419Y-79157533D01*
X141171847Y-79776580D02*
X141171847Y-78776580D01*
X140743276Y-79776580D02*
X140743276Y-79252771D01*
X140790895Y-79157533D01*
X140886133Y-79109914D01*
X141028990Y-79109914D01*
X141124228Y-79157533D01*
X141171847Y-79205152D01*
X139552800Y-78871819D02*
X139505180Y-78824200D01*
X139409942Y-78776580D01*
X139171847Y-78776580D01*
X139076609Y-78824200D01*
X139028990Y-78871819D01*
X138981371Y-78967057D01*
X138981371Y-79062295D01*
X139028990Y-79205152D01*
X139600419Y-79776580D01*
X138981371Y-79776580D01*
X138362323Y-78776580D02*
X138267085Y-78776580D01*
X138171847Y-78824200D01*
X138124228Y-78871819D01*
X138076609Y-78967057D01*
X138028990Y-79157533D01*
X138028990Y-79395628D01*
X138076609Y-79586104D01*
X138124228Y-79681342D01*
X138171847Y-79728961D01*
X138267085Y-79776580D01*
X138362323Y-79776580D01*
X138457561Y-79728961D01*
X138505180Y-79681342D01*
X138552800Y-79586104D01*
X138600419Y-79395628D01*
X138600419Y-79157533D01*
X138552800Y-78967057D01*
X138505180Y-78871819D01*
X138457561Y-78824200D01*
X138362323Y-78776580D01*
X137076609Y-79776580D02*
X137648038Y-79776580D01*
X137362323Y-79776580D02*
X137362323Y-78776580D01*
X137457561Y-78919438D01*
X137552800Y-79014676D01*
X137648038Y-79062295D01*
X136600419Y-79776580D02*
X136409942Y-79776580D01*
X136314704Y-79728961D01*
X136267085Y-79681342D01*
X136171847Y-79538485D01*
X136124228Y-79348009D01*
X136124228Y-78967057D01*
X136171847Y-78871819D01*
X136219466Y-78824200D01*
X136314704Y-78776580D01*
X136505180Y-78776580D01*
X136600419Y-78824200D01*
X136648038Y-78871819D01*
X136695657Y-78967057D01*
X136695657Y-79205152D01*
X136648038Y-79300390D01*
X136600419Y-79348009D01*
X136505180Y-79395628D01*
X136314704Y-79395628D01*
X136219466Y-79348009D01*
X136171847Y-79300390D01*
X136124228Y-79205152D01*
D11*
G04 #@! TO.C,U2*
X113690400Y-83642200D02*
X103327200Y-83642200D01*
X103327200Y-83642200D02*
X103327200Y-72466200D01*
X103327200Y-72466200D02*
X113690400Y-72466200D01*
X113690400Y-72466200D02*
X113690400Y-83642200D01*
X109525795Y-76047600D02*
G75*
G03X109525795Y-76047600I-2591298J0D01*
G01*
X109004100Y-80566260D02*
X103873300Y-80566260D01*
X103873300Y-80566260D02*
X103873300Y-83030060D01*
X103873300Y-83030060D02*
X109004100Y-83030060D01*
X109004100Y-83030060D02*
X109004100Y-80566260D01*
X110969988Y-75215500D02*
X110636655Y-76215500D01*
X110303321Y-75215500D01*
X109969988Y-76215500D02*
X109969988Y-75215500D01*
X111011862Y-80310740D02*
X110678529Y-81310740D01*
X110345196Y-80310740D01*
X109821386Y-80310740D02*
X109630910Y-80310740D01*
X109535672Y-80358360D01*
X109440434Y-80453598D01*
X109392815Y-80644074D01*
X109392815Y-80977407D01*
X109440434Y-81167883D01*
X109535672Y-81263121D01*
X109630910Y-81310740D01*
X109821386Y-81310740D01*
X109916624Y-81263121D01*
X110011862Y-81167883D01*
X110059481Y-80977407D01*
X110059481Y-80644074D01*
X110011862Y-80453598D01*
X109916624Y-80358360D01*
X109821386Y-80310740D01*
X109991875Y-77815820D02*
X110087113Y-77768200D01*
X110229970Y-77768200D01*
X110372827Y-77815820D01*
X110468065Y-77911058D01*
X110515684Y-78006296D01*
X110563303Y-78196772D01*
X110563303Y-78339629D01*
X110515684Y-78530105D01*
X110468065Y-78625343D01*
X110372827Y-78720581D01*
X110229970Y-78768200D01*
X110134732Y-78768200D01*
X109991875Y-78720581D01*
X109944256Y-78672962D01*
X109944256Y-78339629D01*
X110134732Y-78339629D01*
G04 #@! TD*
M02*
