G04 #@! TF.GenerationSoftware,KiCad,Pcbnew,5.0.2+dfsg1-1~bpo9+1*
G04 #@! TF.CreationDate,2019-04-13T15:56:37+01:00*
G04 #@! TF.ProjectId,smart_glasses,736d6172-745f-4676-9c61-737365732e6b,rev?*
G04 #@! TF.SameCoordinates,Original*
G04 #@! TF.FileFunction,Legend,Top*
G04 #@! TF.FilePolarity,Positive*
%FSLAX46Y46*%
G04 Gerber Fmt 4.6, Leading zero omitted, Abs format (unit mm)*
G04 Created by KiCad (PCBNEW 5.0.2+dfsg1-1~bpo9+1) date Sat 13 Apr 2019 15:56:37 BST*
%MOMM*%
%LPD*%
G01*
G04 APERTURE LIST*
%ADD10C,0.250000*%
%ADD11C,0.125000*%
%ADD12C,0.150000*%
G04 APERTURE END LIST*
D10*
X142276461Y-83676476D02*
X142324080Y-83533619D01*
X142324080Y-83295523D01*
X142276461Y-83200285D01*
X142228842Y-83152666D01*
X142133604Y-83105047D01*
X142038366Y-83105047D01*
X141943128Y-83152666D01*
X141895509Y-83200285D01*
X141847890Y-83295523D01*
X141800271Y-83486000D01*
X141752652Y-83581238D01*
X141705033Y-83628857D01*
X141609795Y-83676476D01*
X141514557Y-83676476D01*
X141419319Y-83628857D01*
X141371700Y-83581238D01*
X141324080Y-83486000D01*
X141324080Y-83247904D01*
X141371700Y-83105047D01*
X142324080Y-82676476D02*
X141657414Y-82676476D01*
X141752652Y-82676476D02*
X141705033Y-82628857D01*
X141657414Y-82533619D01*
X141657414Y-82390761D01*
X141705033Y-82295523D01*
X141800271Y-82247904D01*
X142324080Y-82247904D01*
X141800271Y-82247904D02*
X141705033Y-82200285D01*
X141657414Y-82105047D01*
X141657414Y-81962190D01*
X141705033Y-81866952D01*
X141800271Y-81819333D01*
X142324080Y-81819333D01*
X142324080Y-80914571D02*
X141800271Y-80914571D01*
X141705033Y-80962190D01*
X141657414Y-81057428D01*
X141657414Y-81247904D01*
X141705033Y-81343142D01*
X142276461Y-80914571D02*
X142324080Y-81009809D01*
X142324080Y-81247904D01*
X142276461Y-81343142D01*
X142181223Y-81390761D01*
X142085985Y-81390761D01*
X141990747Y-81343142D01*
X141943128Y-81247904D01*
X141943128Y-81009809D01*
X141895509Y-80914571D01*
X142324080Y-80438380D02*
X141657414Y-80438380D01*
X141847890Y-80438380D02*
X141752652Y-80390761D01*
X141705033Y-80343142D01*
X141657414Y-80247904D01*
X141657414Y-80152666D01*
X141657414Y-79962190D02*
X141657414Y-79581238D01*
X141324080Y-79819333D02*
X142181223Y-79819333D01*
X142276461Y-79771714D01*
X142324080Y-79676476D01*
X142324080Y-79581238D01*
X142419319Y-79486000D02*
X142419319Y-78724095D01*
X141657414Y-78057428D02*
X142466938Y-78057428D01*
X142562176Y-78105047D01*
X142609795Y-78152666D01*
X142657414Y-78247904D01*
X142657414Y-78390761D01*
X142609795Y-78486000D01*
X142276461Y-78057428D02*
X142324080Y-78152666D01*
X142324080Y-78343142D01*
X142276461Y-78438380D01*
X142228842Y-78486000D01*
X142133604Y-78533619D01*
X141847890Y-78533619D01*
X141752652Y-78486000D01*
X141705033Y-78438380D01*
X141657414Y-78343142D01*
X141657414Y-78152666D01*
X141705033Y-78057428D01*
X142324080Y-77438380D02*
X142276461Y-77533619D01*
X142181223Y-77581238D01*
X141324080Y-77581238D01*
X142324080Y-76628857D02*
X141800271Y-76628857D01*
X141705033Y-76676476D01*
X141657414Y-76771714D01*
X141657414Y-76962190D01*
X141705033Y-77057428D01*
X142276461Y-76628857D02*
X142324080Y-76724095D01*
X142324080Y-76962190D01*
X142276461Y-77057428D01*
X142181223Y-77105047D01*
X142085985Y-77105047D01*
X141990747Y-77057428D01*
X141943128Y-76962190D01*
X141943128Y-76724095D01*
X141895509Y-76628857D01*
X142276461Y-76200285D02*
X142324080Y-76105047D01*
X142324080Y-75914571D01*
X142276461Y-75819333D01*
X142181223Y-75771714D01*
X142133604Y-75771714D01*
X142038366Y-75819333D01*
X141990747Y-75914571D01*
X141990747Y-76057428D01*
X141943128Y-76152666D01*
X141847890Y-76200285D01*
X141800271Y-76200285D01*
X141705033Y-76152666D01*
X141657414Y-76057428D01*
X141657414Y-75914571D01*
X141705033Y-75819333D01*
X142276461Y-75390761D02*
X142324080Y-75295523D01*
X142324080Y-75105047D01*
X142276461Y-75009809D01*
X142181223Y-74962190D01*
X142133604Y-74962190D01*
X142038366Y-75009809D01*
X141990747Y-75105047D01*
X141990747Y-75247904D01*
X141943128Y-75343142D01*
X141847890Y-75390761D01*
X141800271Y-75390761D01*
X141705033Y-75343142D01*
X141657414Y-75247904D01*
X141657414Y-75105047D01*
X141705033Y-75009809D01*
X142276461Y-74152666D02*
X142324080Y-74247904D01*
X142324080Y-74438380D01*
X142276461Y-74533619D01*
X142181223Y-74581238D01*
X141800271Y-74581238D01*
X141705033Y-74533619D01*
X141657414Y-74438380D01*
X141657414Y-74247904D01*
X141705033Y-74152666D01*
X141800271Y-74105047D01*
X141895509Y-74105047D01*
X141990747Y-74581238D01*
X142276461Y-73724095D02*
X142324080Y-73628857D01*
X142324080Y-73438380D01*
X142276461Y-73343142D01*
X142181223Y-73295523D01*
X142133604Y-73295523D01*
X142038366Y-73343142D01*
X141990747Y-73438380D01*
X141990747Y-73581238D01*
X141943128Y-73676476D01*
X141847890Y-73724095D01*
X141800271Y-73724095D01*
X141705033Y-73676476D01*
X141657414Y-73581238D01*
X141657414Y-73438380D01*
X141705033Y-73343142D01*
X112781580Y-83113571D02*
X112448247Y-83113571D01*
X112448247Y-83637380D02*
X112448247Y-82637380D01*
X112924438Y-82637380D01*
X113733961Y-83637380D02*
X113733961Y-83113571D01*
X113686342Y-83018333D01*
X113591104Y-82970714D01*
X113400628Y-82970714D01*
X113305390Y-83018333D01*
X113733961Y-83589761D02*
X113638723Y-83637380D01*
X113400628Y-83637380D01*
X113305390Y-83589761D01*
X113257771Y-83494523D01*
X113257771Y-83399285D01*
X113305390Y-83304047D01*
X113400628Y-83256428D01*
X113638723Y-83256428D01*
X113733961Y-83208809D01*
X114638723Y-83589761D02*
X114543485Y-83637380D01*
X114353009Y-83637380D01*
X114257771Y-83589761D01*
X114210152Y-83542142D01*
X114162533Y-83446904D01*
X114162533Y-83161190D01*
X114210152Y-83065952D01*
X114257771Y-83018333D01*
X114353009Y-82970714D01*
X114543485Y-82970714D01*
X114638723Y-83018333D01*
X115448247Y-83589761D02*
X115353009Y-83637380D01*
X115162533Y-83637380D01*
X115067295Y-83589761D01*
X115019676Y-83494523D01*
X115019676Y-83113571D01*
X115067295Y-83018333D01*
X115162533Y-82970714D01*
X115353009Y-82970714D01*
X115448247Y-83018333D01*
X115495866Y-83113571D01*
X115495866Y-83208809D01*
X115019676Y-83304047D01*
X116067295Y-83637380D02*
X115972057Y-83589761D01*
X115924438Y-83494523D01*
X115924438Y-82637380D01*
X116829200Y-83589761D02*
X116733961Y-83637380D01*
X116543485Y-83637380D01*
X116448247Y-83589761D01*
X116400628Y-83494523D01*
X116400628Y-83113571D01*
X116448247Y-83018333D01*
X116543485Y-82970714D01*
X116733961Y-82970714D01*
X116829200Y-83018333D01*
X116876819Y-83113571D01*
X116876819Y-83208809D01*
X116400628Y-83304047D01*
X117257771Y-83589761D02*
X117353009Y-83637380D01*
X117543485Y-83637380D01*
X117638723Y-83589761D01*
X117686342Y-83494523D01*
X117686342Y-83446904D01*
X117638723Y-83351666D01*
X117543485Y-83304047D01*
X117400628Y-83304047D01*
X117305390Y-83256428D01*
X117257771Y-83161190D01*
X117257771Y-83113571D01*
X117305390Y-83018333D01*
X117400628Y-82970714D01*
X117543485Y-82970714D01*
X117638723Y-83018333D01*
X118067295Y-83589761D02*
X118162533Y-83637380D01*
X118353009Y-83637380D01*
X118448247Y-83589761D01*
X118495866Y-83494523D01*
X118495866Y-83446904D01*
X118448247Y-83351666D01*
X118353009Y-83304047D01*
X118210152Y-83304047D01*
X118114914Y-83256428D01*
X118067295Y-83161190D01*
X118067295Y-83113571D01*
X118114914Y-83018333D01*
X118210152Y-82970714D01*
X118353009Y-82970714D01*
X118448247Y-83018333D01*
X118781580Y-82970714D02*
X119162533Y-82970714D01*
X118924438Y-82637380D02*
X118924438Y-83494523D01*
X118972057Y-83589761D01*
X119067295Y-83637380D01*
X119162533Y-83637380D01*
X119876819Y-83589761D02*
X119781580Y-83637380D01*
X119591104Y-83637380D01*
X119495866Y-83589761D01*
X119448247Y-83494523D01*
X119448247Y-83113571D01*
X119495866Y-83018333D01*
X119591104Y-82970714D01*
X119781580Y-82970714D01*
X119876819Y-83018333D01*
X119924438Y-83113571D01*
X119924438Y-83208809D01*
X119448247Y-83304047D01*
X120781580Y-83589761D02*
X120686342Y-83637380D01*
X120495866Y-83637380D01*
X120400628Y-83589761D01*
X120353009Y-83542142D01*
X120305390Y-83446904D01*
X120305390Y-83161190D01*
X120353009Y-83065952D01*
X120400628Y-83018333D01*
X120495866Y-82970714D01*
X120686342Y-82970714D01*
X120781580Y-83018333D01*
X121210152Y-83637380D02*
X121210152Y-82637380D01*
X121638723Y-83637380D02*
X121638723Y-83113571D01*
X121591104Y-83018333D01*
X121495866Y-82970714D01*
X121353009Y-82970714D01*
X121257771Y-83018333D01*
X121210152Y-83065952D01*
X122829200Y-82732619D02*
X122876819Y-82685000D01*
X122972057Y-82637380D01*
X123210152Y-82637380D01*
X123305390Y-82685000D01*
X123353009Y-82732619D01*
X123400628Y-82827857D01*
X123400628Y-82923095D01*
X123353009Y-83065952D01*
X122781580Y-83637380D01*
X123400628Y-83637380D01*
X124019676Y-82637380D02*
X124114914Y-82637380D01*
X124210152Y-82685000D01*
X124257771Y-82732619D01*
X124305390Y-82827857D01*
X124353009Y-83018333D01*
X124353009Y-83256428D01*
X124305390Y-83446904D01*
X124257771Y-83542142D01*
X124210152Y-83589761D01*
X124114914Y-83637380D01*
X124019676Y-83637380D01*
X123924438Y-83589761D01*
X123876819Y-83542142D01*
X123829200Y-83446904D01*
X123781580Y-83256428D01*
X123781580Y-83018333D01*
X123829200Y-82827857D01*
X123876819Y-82732619D01*
X123924438Y-82685000D01*
X124019676Y-82637380D01*
X125305390Y-83637380D02*
X124733961Y-83637380D01*
X125019676Y-83637380D02*
X125019676Y-82637380D01*
X124924438Y-82780238D01*
X124829200Y-82875476D01*
X124733961Y-82923095D01*
X125781580Y-83637380D02*
X125972057Y-83637380D01*
X126067295Y-83589761D01*
X126114914Y-83542142D01*
X126210152Y-83399285D01*
X126257771Y-83208809D01*
X126257771Y-82827857D01*
X126210152Y-82732619D01*
X126162533Y-82685000D01*
X126067295Y-82637380D01*
X125876819Y-82637380D01*
X125781580Y-82685000D01*
X125733961Y-82732619D01*
X125686342Y-82827857D01*
X125686342Y-83065952D01*
X125733961Y-83161190D01*
X125781580Y-83208809D01*
X125876819Y-83256428D01*
X126067295Y-83256428D01*
X126162533Y-83208809D01*
X126210152Y-83161190D01*
X126257771Y-83065952D01*
D11*
X114790695Y-72243190D02*
X114885933Y-72243190D01*
X114933552Y-72267000D01*
X114981171Y-72314619D01*
X115004980Y-72409857D01*
X115004980Y-72576523D01*
X114981171Y-72671761D01*
X114933552Y-72719380D01*
X114885933Y-72743190D01*
X114790695Y-72743190D01*
X114743076Y-72719380D01*
X114695457Y-72671761D01*
X114671647Y-72576523D01*
X114671647Y-72409857D01*
X114695457Y-72314619D01*
X114743076Y-72267000D01*
X114790695Y-72243190D01*
X115385933Y-72481285D02*
X115219266Y-72481285D01*
X115219266Y-72743190D02*
X115219266Y-72243190D01*
X115457361Y-72243190D01*
X115814504Y-72481285D02*
X115647838Y-72481285D01*
X115647838Y-72743190D02*
X115647838Y-72243190D01*
X115885933Y-72243190D01*
X116433552Y-72219380D02*
X116004980Y-72862238D01*
X116695457Y-72243190D02*
X116790695Y-72243190D01*
X116838314Y-72267000D01*
X116885933Y-72314619D01*
X116909742Y-72409857D01*
X116909742Y-72576523D01*
X116885933Y-72671761D01*
X116838314Y-72719380D01*
X116790695Y-72743190D01*
X116695457Y-72743190D01*
X116647838Y-72719380D01*
X116600219Y-72671761D01*
X116576409Y-72576523D01*
X116576409Y-72409857D01*
X116600219Y-72314619D01*
X116647838Y-72267000D01*
X116695457Y-72243190D01*
X117124028Y-72743190D02*
X117124028Y-72243190D01*
X117409742Y-72743190D01*
X117409742Y-72243190D01*
D12*
G04 #@! TO.C,U3*
X128955800Y-74955400D02*
X140208000Y-74955400D01*
X140233400Y-81457800D02*
X128955800Y-81457800D01*
X140220700Y-74955400D02*
X140220700Y-81457800D01*
X128955800Y-74955400D02*
X128955800Y-81457800D01*
G04 #@! TO.C,U1*
X144133200Y-81134400D02*
X144338200Y-81134400D01*
X144133200Y-75634400D02*
X144433200Y-75634400D01*
X149643200Y-75634400D02*
X149343200Y-75634400D01*
X149643200Y-81134400D02*
X149343200Y-81134400D01*
X144133200Y-81134400D02*
X144133200Y-75634400D01*
X149643200Y-81134400D02*
X149643200Y-75634400D01*
X144338200Y-81134400D02*
X144338200Y-82884400D01*
G04 #@! TO.C,SW1*
X126555500Y-75107800D02*
X119748300Y-75107800D01*
X119748300Y-75107800D02*
X119748300Y-72351900D01*
X126555500Y-75107800D02*
X126555500Y-72351900D01*
X126555500Y-72351900D02*
X119748300Y-72351900D01*
X123012200Y-72339200D02*
X123012200Y-70624700D01*
X123012200Y-70612000D02*
X121704100Y-70612000D01*
X121704100Y-70612000D02*
X121704100Y-72339200D01*
X123253500Y-72351900D02*
X123253500Y-70612000D01*
X123253500Y-70612000D02*
X124561600Y-70612000D01*
X124561600Y-70612000D02*
X124561600Y-72351900D01*
G04 #@! TO.C,U4*
X122021647Y-81110128D02*
X122783552Y-81110128D01*
X122402600Y-81491080D02*
X122402600Y-80729176D01*
X124561647Y-81173628D02*
X125323552Y-81173628D01*
G04 #@! TO.C,D1*
X115260380Y-76014200D02*
X114260380Y-76014200D01*
X114260380Y-75776104D01*
X114308000Y-75633247D01*
X114403238Y-75538009D01*
X114498476Y-75490390D01*
X114688952Y-75442771D01*
X114831809Y-75442771D01*
X115022285Y-75490390D01*
X115117523Y-75538009D01*
X115212761Y-75633247D01*
X115260380Y-75776104D01*
X115260380Y-76014200D01*
X115260380Y-75014200D02*
X114260380Y-75014200D01*
X114260380Y-78438333D02*
X115260380Y-78105000D01*
X114260380Y-77771666D01*
X114308000Y-80408495D02*
X114260380Y-80503733D01*
X114260380Y-80646590D01*
X114308000Y-80789447D01*
X114403238Y-80884685D01*
X114498476Y-80932304D01*
X114688952Y-80979923D01*
X114831809Y-80979923D01*
X115022285Y-80932304D01*
X115117523Y-80884685D01*
X115212761Y-80789447D01*
X115260380Y-80646590D01*
X115260380Y-80551352D01*
X115212761Y-80408495D01*
X115165142Y-80360876D01*
X114831809Y-80360876D01*
X114831809Y-80551352D01*
G04 #@! TD*
M02*
